<svg id="Layer_5" enable-background="new 0 0 64 64" height="512" viewBox="0 0 64 64" width="512" xmlns="http://www.w3.org/2000/svg"><path d="m5 42.285v-4.605l-1.291-2.594c-.445.532-.709 1.197-.709 1.914v5.285c-1.228.669-2 2.442-2 3.715 0 1.654 1.346 3 3 3s3-1.346 3-3c0-1.273-.772-3.046-2-3.715z"/><path d="m23.235 32.82-.567.508c-.02.018-.118.105-.267.234 1.021 1.244 1.599 2.806 1.599 4.438 0 2.199-1.021 4.162-2.612 5.446 1.693.464 3.266 1.285 4.612 2.414v-12.86h14v2h19v2h-19v4h18c1.654 0 3-1.346 3-3v-7h-38.672z"/><path d="m36 13.618v4.764l4.764-2.382z"/><path d="m38.276 49c-.513 0-.996.227-1.325.621l-4.483 5.379h-1.989l-3.961-5.658c-1.902-2.719-5.02-4.342-8.339-4.342h-1.179c-4.962 0-9 4.037-9 9v7h15v-6l-1.8-2.4 1.6-1.199 3.9 5.2c1.127 1.502 2.922 2.399 4.8 2.399s3.673-.897 4.8-2.399l3.355-4.474c.222-.297.345-.665.345-1.035v-.368c0-.951-.773-1.724-1.724-1.724z"/><path d="m5.019 33.229.883 1.775 15.098-8.238-.902-1.77z"/><path d="m19.519 29.846-10.362 5.65 1.162 2.333c1.247-.338 3.755-1.081 5.555-2.027 1.82-.955 3.9-2.635 4.885-3.467z"/><path d="m17 43c2.757 0 5-2.243 5-5 0-1.164-.412-2.278-1.139-3.166-1.134.895-2.641 1.995-4.057 2.739-1.44.756-3.225 1.376-4.605 1.797.598 2.116 2.531 3.63 4.801 3.63z"/><path d="m35.415 48.34c.649-.779 1.582-1.235 2.585-1.31v-12.03h-10v12.997c.05.068.109.128.157.198l3.375 4.805zm-5.415-11.34h6v2h-6zm0 4h6v2h-6zm0 4h4v2h-4z"/><path d="m58 3h-38c-1.654 0-3 1.346-3 3v18.418l2.177-1.187c.495-.253 1.034-.298 1.541-.135.507.164.92.516 1.162.991l.902 1.77c.499.978.11 2.18-.865 2.681l-.641.349.056.113h39.668v-23c0-1.654-1.346-3-3-3zm-37 12h-2v-2h2zm0-8v4h-2v-4c0-1.103.897-2 2-2h8v2zm18 20c-6.065 0-11-4.935-11-11s4.935-11 11-11 11 4.935 11 11-4.935 11-11 11zm20 0h-2v-2h2zm0-4h-2v-2h2zm0-4h-2v-2h2z"/><path d="m39 7c-4.962 0-9 4.037-9 9s4.038 9 9 9 9-4.037 9-9-4.038-9-9-9zm-5 14.618v-11.236l11.236 5.618z"/></svg>